<?xml version="1.0" encoding="UTF-8" standalone="no"?>
<!-- Created with Inkscape (http://www.inkscape.org/) -->

<svg
   xmlns:dc="http://purl.org/dc/elements/1.1/"
   xmlns:cc="http://creativecommons.org/ns#"
   xmlns:rdf="http://www.w3.org/1999/02/22-rdf-syntax-ns#"
   xmlns:svg="http://www.w3.org/2000/svg"
   xmlns="http://www.w3.org/2000/svg"
   xmlns:sodipodi="http://sodipodi.sourceforge.net/DTD/sodipodi-0.dtd"
   xmlns:inkscape="http://www.inkscape.org/namespaces/inkscape"
   id="svg2"
   height="32.134"
   width="32.002"
   version="1.1"
   inkscape:version="0.48.4 r9939"
   sodipodi:docname="32-2.svg">
  <defs
     id="defs24" />
  <sodipodi:namedview
     pagecolor="#ffffff"
     bordercolor="#666666"
     borderopacity="1"
     objecttolerance="10"
     gridtolerance="10"
     guidetolerance="10"
     inkscape:pageopacity="0"
     inkscape:pageshadow="2"
     inkscape:window-width="1877"
     inkscape:window-height="1062"
     id="namedview22"
     showgrid="false"
     inkscape:zoom="20.772665"
     inkscape:cx="10.797173"
     inkscape:cy="20.914946"
     inkscape:window-x="43"
     inkscape:window-y="18"
     inkscape:window-maximized="1"
     inkscape:current-layer="layer1" />
  <metadata
     id="metadata7">
    <rdf:RDF>
      <cc:Work
         rdf:about="">
        <dc:format>image/svg+xml</dc:format>
        <dc:type
           rdf:resource="http://purl.org/dc/dcmitype/StillImage" />
        <dc:title />
      </cc:Work>
    </rdf:RDF>
  </metadata>
  <g
     id="layer1"
     stroke-linejoin="miter"
     transform="matrix(0.24753889,0,0,0.24753889,-25.426885,-134.80813)"
     stroke="#000"
     stroke-linecap="butt"
     stroke-dasharray="none"
     stroke-miterlimit="4">
    <path
       id="path2999"
       d="m 143.95,582.34 c 7.5029,-29.321 33.436,-35.46 43.666,-0.17762 -10.0999,-35.05527 -36.0112,-29.05722 -43.666,0.17762 z"
       style="fill:none;stroke-width:3.89433757;stroke-miterlimit:4;stroke-dasharray:none"
       inkscape:connector-curvature="0"
       sodipodi:nodetypes="ccc" />
    <path
       id="path3003"
       d="m175.91,586.62c-5.6107,2.7846-13.614,2.5474-33.986,0.30273-2.6332,4.573-5.2677,12.192-5.7767,22.022,25.899,4.8967,36.303-15.287,39.763-22.324z"
       stroke="#000"
       stroke-width="2.82783849"
       fill="#F00" />
    <path
       id="path3005"
       d="m135.3,615.35c23.338,2.6937,34.422-3.8158,46.514-27.043,2.2993,24.733-15.479,54.858-34.63,63.643-8.0547-7.536-13.289-16.359-11.884-36.6z"
       stroke-width="2.82783849"
       fill="#65ccff" />
    <path
       id="path3007"
       d="m188.82,587.89c-1.4166,45.511-29.103,66.685-36.71,68.039,34.791,18.661,60.613-35.581,36.71-68.039z"
       stroke-width="2.82783849"
       fill="#fff500" />
    <path
       id="path3783"
       d="m151.83,565.12-5.1318-7.8494z"
       stroke-width="3.63579234"
       fill="none"
       style="stroke-width:5.10626835;stroke-miterlimit:4;stroke-dasharray:none" />
    <path
       id="path3787"
       d="m138.52,593.28-8.5687-7.1841"
       stroke-width="4.84772312"
       fill="none"
       style="stroke-width:5.10626835;stroke-miterlimit:4;stroke-dasharray:none" />
    <path
       id="path3789"
       d="m135.19,621.62-12.428-0.23212"
       stroke-width="4.84772312"
       fill="none"
       style="stroke-width:5.10626835;stroke-miterlimit:4;stroke-dasharray:none" />
    <path
       id="path3791"
       d="m142.36,647.99-11.763,4.1028"
       stroke-width="4.84772312"
       fill="none"
       style="stroke-width:5.10626835;stroke-miterlimit:4;stroke-dasharray:none" />
    <path
       id="path3793"
       d="m192.48,593.67,10.564-6.8771"
       stroke-width="4.84772312"
       fill="none"
       style="stroke-width:5.10626835;stroke-miterlimit:4;stroke-dasharray:none" />
    <path
       id="path3795"
       d="m198.27,621.44,10.901-0.25903"
       stroke-width="4.84772312"
       fill="none"
       style="stroke-width:5.10626835;stroke-miterlimit:4;stroke-dasharray:none" />
    <path
       id="path3801"
       d="m104.51,563.25,0-16.863,16.266,0"
       stroke-width="3.55625892"
       fill="none" />
    <path
       id="path3803"
       d="m230.22,656.54,0,16.082-17.039,0"
       stroke-width="3.55625892"
       fill="none" />
    <path
       id="path3783-3"
       d="m179.61,565.36,5.505-7.9683z"
       stroke-width="3.63579234"
       fill="none"
       style="stroke-width:5.10626835;stroke-miterlimit:4;stroke-dasharray:none" />
    <path
       id="path3791-3"
       d="m187.77,647.92,11.763,4.1028"
       stroke-width="4.84772312"
       fill="none"
       style="stroke-width:5.10626835;stroke-miterlimit:4;stroke-dasharray:none" />
  </g>
  <g
     id="layer2"
     stroke-linejoin="miter"
     display="none"
     transform="translate(-16.277704,-80.304798)"
     stroke-dashoffset="0"
     stroke="#000"
     stroke-linecap="butt"
     stroke-dasharray="0.80000001, 9.60000014"
     stroke-miterlimit="4"
     stroke-width="0.80000001"
     fill="none">
    <path
       id="path3955"
       d="m17.06,30.193,0,80.499,79.811,0" />
    <path
       id="path3957"
       d="m29.707,17.12,80.512,0,0,80.901" />
  </g>
</svg>
